<svg width="160" height="22" viewBox="0 0 160 22" fill="none" xmlns="http://www.w3.org/2000/svg">
<path d="M0 0.563644H5.73534V18.1758H0V0.563644ZM9.52953 0.563644H14.014L21.1604 9.86146V0.563644H25.9243V18.1758H21.7201L14.2919 8.49691V18.1439H9.52953V0.563644ZM59.2705 0.563644H63.9039L71.3009 18.2996H66.1293L64.8761 15.1583H58.1718L56.9177 18.2996H51.8406L59.2705 0.563644ZM63.5011 11.353L61.5584 6.33903L59.5796 11.353H63.4971H63.5011ZM71.3057 9.76719V9.70327C71.2795 8.49676 71.4983 7.29744 71.9487 6.17745C72.3992 5.05746 73.0721 4.03995 73.927 3.18614C74.7818 2.33232 75.8009 1.65985 76.9231 1.20916C78.0452 0.758478 79.2471 0.538903 80.4565 0.563644C81.8969 0.501659 83.3294 0.807196 84.6186 1.45137C85.9077 2.09555 87.0109 3.05708 87.8238 4.24506L84.1882 7.1012C83.7731 6.47436 83.2104 5.95856 82.5492 5.59895C81.888 5.23934 81.1486 5.04687 80.3956 5.03839C77.9515 5.03839 76.2587 7.13235 76.2587 9.70327V9.76719C76.2587 12.4036 77.9828 14.4632 80.3956 14.4632C82.2134 14.4632 83.2785 13.606 84.3139 12.3365L87.9495 14.9394C87.1219 16.2131 85.9751 17.2491 84.6228 17.9448C83.2705 18.6406 81.7595 18.9719 80.2394 18.906C79.0464 18.9082 77.865 18.6715 76.7653 18.2101C75.6655 17.7487 74.6697 17.0718 73.8368 16.2197C73.0039 15.3675 72.3508 14.3573 71.9162 13.2488C71.4816 12.1404 71.2743 10.9562 71.3065 9.76639L71.3057 9.76719ZM94.2799 4.84745H89.0747V0.563644H104.338V4.84745H99.1327V18.1758H94.3063V4.84745H94.2799ZM105.062 9.76719V9.70327C105.136 7.27581 106.153 4.97213 107.899 3.27956C109.644 1.58699 111.981 0.638284 114.416 0.634133C116.85 0.629982 119.19 1.57071 120.942 3.25732C122.693 4.94392 123.719 7.24412 123.801 9.67132V9.73523C123.727 12.1627 122.709 14.4663 120.964 16.1588C119.218 17.8513 116.881 18.7999 114.446 18.804C112.012 18.808 109.672 17.8672 107.92 16.1805C106.169 14.4938 105.144 12.1936 105.062 9.76639V9.76719ZM118.884 9.76719V9.70327C118.912 9.09474 118.817 8.48683 118.605 7.91551C118.393 7.3442 118.068 6.82111 117.65 6.3772C117.232 5.93329 116.729 5.57759 116.17 5.33116C115.612 5.08473 115.01 4.95257 114.399 4.94252C111.766 4.94252 110.011 7.0996 110.011 9.64016V9.70327C109.983 10.309 110.077 10.9141 110.287 11.4831C110.497 12.0522 110.818 12.5737 111.233 13.017C111.647 13.4604 112.147 13.8167 112.701 14.065C113.256 14.3134 113.854 14.4488 114.462 14.4632C115.065 14.4582 115.662 14.3311 116.214 14.0896C116.767 13.848 117.266 13.4972 117.679 13.0581C118.092 12.6191 118.411 12.101 118.618 11.5352C118.825 10.9694 118.914 10.3677 118.881 9.76639L118.884 9.76719ZM126.31 0.563644H134.522C137.186 0.563644 139.006 1.2619 140.195 2.46747C140.715 3.0104 141.12 3.65324 141.384 4.35695C141.648 5.06066 141.766 5.81056 141.731 6.56113V6.62504C141.778 7.78452 141.458 8.92941 140.817 9.89755C140.175 10.8657 139.245 11.608 138.157 12.0193L142.295 18.1758H136.716L133.206 12.8446H131.137V18.1758H126.31V0.563644ZM134.302 9.00502C135.933 9.00502 136.873 8.21169 136.873 6.91025V6.84634C136.873 5.45063 135.869 4.75317 134.271 4.75317H131.106V8.97306H134.302V9.00502ZM148.564 11.5751L141.95 0.563644H147.435L151.008 6.97417L154.611 0.563644H160L153.387 11.5088V18.1726H148.561L148.564 11.5751ZM29.7097 7.44952H34.38V12.1775H29.7097V7.44952ZM45.8194 4.24506H45.8515C46.5535 4.03364 47.2806 3.91624 48.0136 3.89593C48.7122 3.97772 49.3801 4.22866 49.9592 4.62691C50.5383 5.02515 51.011 5.55862 51.3361 6.18084C51.6391 5.87623 51.8783 5.51449 52.0397 5.11671C52.2011 4.71893 52.2815 4.29308 52.2763 3.86398C52.2829 2.99565 51.9436 2.16023 51.3331 1.54136C50.7225 0.922494 49.8906 0.57082 49.0202 0.563644H35.228V6.56113L37.4534 5.79976V20.5877C37.4522 20.6996 37.4731 20.8105 37.5151 20.9142C37.557 21.0179 37.6191 21.1123 37.6978 21.1919C37.7765 21.2715 37.8702 21.3348 37.9736 21.3781C38.0769 21.4214 38.1878 21.4439 38.2999 21.4442H42.3119C42.4239 21.4438 42.5348 21.4212 42.638 21.3779C42.7412 21.3346 42.8349 21.2712 42.9135 21.1916C42.9921 21.112 43.0541 21.0177 43.096 20.914C43.1379 20.8104 43.1588 20.6995 43.1576 20.5877V12.9069H44.161C44.567 13.668 45.2218 14.2676 46.0166 14.6062C46.8113 14.9448 47.6983 15.002 48.5301 14.7684C49.362 14.5347 50.0887 14.0243 50.5897 13.3217C51.0906 12.6192 51.3356 11.7669 51.2841 10.9062C51.2325 10.0456 50.8874 9.22845 50.3062 8.59046C49.7249 7.95247 48.9424 7.53201 48.0885 7.39889C47.2347 7.26578 46.3609 7.42802 45.6122 7.85867C44.8636 8.28933 44.2851 8.96249 43.9728 9.76639H43.1576V5.63997C43.9526 5.0161 44.8556 4.54303 45.8218 4.24426L45.8194 4.24506ZM47.5123 9.44922C47.8469 9.44446 48.1753 9.53914 48.4557 9.72119C48.7361 9.90324 48.9559 10.1644 49.0871 10.4715C49.2183 10.7786 49.2549 11.1177 49.1922 11.4456C49.1296 11.7735 48.9706 12.0753 48.7354 12.3128C48.5002 12.5502 48.1996 12.7125 47.8717 12.7789C47.5438 12.8453 47.2035 12.8128 46.8941 12.6857C46.5848 12.5585 46.3204 12.3424 46.1345 12.0648C45.9487 11.7872 45.8499 11.4607 45.8506 11.1269C45.8506 10.6849 46.0255 10.2607 46.3372 9.94651C46.649 9.63235 47.0724 9.45364 47.5155 9.44922H47.5123Z" fill="white"/>
</svg>
